# xmcd CD database file
#
# Track frame offsets:
#	150
#	11664
#	24720
#	34022
#	49249
#	65155
#	77532
#	92154
#	107308
#	121561
#	138909
#	152714
#	163071
#	177692
#	188720
#	201102
#	212657
#
# Disc length: 2994 seconds
#
# Revision: 0
# Processed by: cddbd v1.5.2PL0 Copyright (c) Steve Scherf et al.
# Submitted via: CDex 1.51
#
DISCID=e10bb011
DTITLE=Waylon Jennings - Music Man
DYEAR=1900
DGENRE=Country
TTITLE0=Clyde
TTITLE1=It's Alright
TTITLE2=Theme From Dukes Of Hazzard
TTITLE3=Nashville Wimmin
TTITLE4=Do It Again
TTITLE5=Storms Never Last
TTITLE6=He Went To Paris
TTITLE7=What About You
TTITLE8=Luckenbach. Texas
TTITLE9=Lucille
TTITLE10=Sweet Caroline
TTITLE11=I Think I'm Gonna Kill Myself
TTITLE12=Belle Of The Ball
TTITLE13=Medley: Thats All Right, My Baby Left Me
TTITLE14=Brand New Goodbay Song
TTITLE15=Satin Sheets
TTITLE16=This Is Getting Funny (But There Ain't Nobody Laughing)
EXTD=
EXTT0=
EXTT1=
EXTT2=
EXTT3=
EXTT4=
EXTT5=
EXTT6=
EXTT7=
EXTT8=
EXTT9=
EXTT10=
EXTT11=
EXTT12=
EXTT13=
EXTT14=
EXTT15=
EXTT16=
PLAYORDER=
